# xmcd
#
# Track frame offsets:
#	150
#	19272
#	36953
#	51237
#	68975
#	86229
#	101417
#	117244
#	134546
#	149478
#	168400
#
# Disc length: 2481 seconds
#
# Revision: 0
# Processed by: cddbd v1.5.2PL0 Copyright (c) Steve Scherf et al.
# Submitted via: audiograbber 1.83.01
#
DISCID=a209af0b
DTITLE=вягстос вокидгс (BY DJ ZRAF) - се поиа леяг хес ма пале
DYEAR=2007
DGENRE=каийа
TTITLE0=лг хулымеис
TTITLE1=се поиа леяг хес ма пале
TTITLE2=л' ацапас
TTITLE3=тосг ацапг (DANCE MIX)
TTITLE4=йи ас лгм евы поу ма паы
TTITLE5=ма гсоум еды
TTITLE6=йимдумос
TTITLE7=паяаликаы
TTITLE8=лиа фыг йако паиди
TTITLE9=ека апоье
TTITLE10=тосг ацапг (ETHNIC VERSION)
EXTD=DJ ZRAF
EXTT0=
EXTT1=
EXTT2=
EXTT3=
EXTT4=
EXTT5=
EXTT6=
EXTT7=
EXTT8=
EXTT9=
EXTT10=
PLAYORDER=
